<mxfile host="app.diagrams.net" modified="2022-01-13T08:49:20.665Z" agent="5.0 (Windows NT 10.0; Win64; x64) AppleWebKit/537.36 (KHTML, like Gecko) Chrome/97.0.4692.71 Safari/537.36" etag="Qp1we46Py4y-Vux1oxhq" version="16.2.4" type="github">
  <diagram id="-JOhpaFIr6ul0aW_N_dZ" name="第 1 页">
    <mxGraphModel dx="1483" dy="827" grid="1" gridSize="10" guides="1" tooltips="1" connect="1" arrows="1" fold="1" page="1" pageScale="1" pageWidth="827" pageHeight="1169" math="0" shadow="0">
      <root>
        <mxCell id="0" />
        <mxCell id="1" parent="0" />
        <mxCell id="BcR8lCa2Gur--fkkyS4Y-196" value="&lt;span&gt;基于数据生命周期的安全风险识别&lt;/span&gt;" style="whiteSpace=wrap;html=1;fontSize=18;fontStyle=1;strokeWidth=2;fillColor=#F2F2F2;strokeColor=#D9D9D9;verticalAlign=top;spacingTop=2;" parent="1" vertex="1">
          <mxGeometry x="41.5" y="880" width="1118.5" height="520" as="geometry" />
        </mxCell>
        <mxCell id="BcR8lCa2Gur--fkkyS4Y-109" value="采集" style="whiteSpace=wrap;html=1;strokeColor=#6c8ebf;dashed=1;fillColor=#dae8fc;" parent="1" vertex="1">
          <mxGeometry x="81.5" y="961" width="150" height="40" as="geometry" />
        </mxCell>
        <mxCell id="BcR8lCa2Gur--fkkyS4Y-110" value="传输" style="whiteSpace=wrap;html=1;strokeColor=#6c8ebf;dashed=1;fillColor=#dae8fc;" parent="1" vertex="1">
          <mxGeometry x="259.5" y="961" width="150" height="40" as="geometry" />
        </mxCell>
        <mxCell id="BcR8lCa2Gur--fkkyS4Y-111" value="存储" style="whiteSpace=wrap;html=1;strokeColor=#6c8ebf;dashed=1;fillColor=#dae8fc;" parent="1" vertex="1">
          <mxGeometry x="437.5" y="961" width="150" height="40" as="geometry" />
        </mxCell>
        <mxCell id="BcR8lCa2Gur--fkkyS4Y-112" value="处理使用" style="whiteSpace=wrap;html=1;strokeColor=#6c8ebf;dashed=1;fillColor=#dae8fc;" parent="1" vertex="1">
          <mxGeometry x="614.5" y="961" width="150" height="40" as="geometry" />
        </mxCell>
        <mxCell id="BcR8lCa2Gur--fkkyS4Y-113" value="交换" style="whiteSpace=wrap;html=1;strokeColor=#6c8ebf;dashed=1;fillColor=#dae8fc;" parent="1" vertex="1">
          <mxGeometry x="792.5" y="961" width="150" height="40" as="geometry" />
        </mxCell>
        <mxCell id="BcR8lCa2Gur--fkkyS4Y-114" value="销毁" style="whiteSpace=wrap;html=1;strokeColor=#6c8ebf;dashed=1;fillColor=#dae8fc;" parent="1" vertex="1">
          <mxGeometry x="970.5" y="961" width="150" height="40" as="geometry" />
        </mxCell>
        <mxCell id="BcR8lCa2Gur--fkkyS4Y-131" value="数据合规" style="whiteSpace=wrap;html=1;strokeColor=#99CCFF;strokeWidth=2;" parent="1" vertex="1">
          <mxGeometry x="81.5" y="1021" width="150" height="30" as="geometry" />
        </mxCell>
        <mxCell id="BcR8lCa2Gur--fkkyS4Y-137" value="" style="whiteSpace=wrap;html=1;fontSize=18;fontStyle=1;strokeWidth=2;fillColor=#F2F2F2;strokeColor=#D9D9D9;" parent="1" vertex="1">
          <mxGeometry x="40" y="680" width="1120" height="170" as="geometry" />
        </mxCell>
        <mxCell id="BcR8lCa2Gur--fkkyS4Y-171" value="数据&lt;br&gt;安全&lt;br&gt;技术" style="whiteSpace=wrap;html=1;fontSize=18;fontStyle=1;strokeColor=none;fillColor=none;fontColor=#E66B0F;" parent="1" vertex="1">
          <mxGeometry x="41.5" y="694" width="88.5" height="66.5" as="geometry" />
        </mxCell>
        <mxCell id="BcR8lCa2Gur--fkkyS4Y-192" value="" style="group" parent="1" vertex="1" connectable="0">
          <mxGeometry x="157.75" y="693" width="240" height="147.5" as="geometry" />
        </mxCell>
        <mxCell id="BcR8lCa2Gur--fkkyS4Y-160" value="数据资产管理" style="whiteSpace=wrap;html=1;align=center;verticalAlign=top;fontSize=16;fontStyle=1;fillColor=#FFE5DB;strokeColor=none;fontColor=#143642;" parent="BcR8lCa2Gur--fkkyS4Y-192" vertex="1">
          <mxGeometry width="240" height="147.5" as="geometry" />
        </mxCell>
        <mxCell id="BcR8lCa2Gur--fkkyS4Y-161" value="资产发现" style="whiteSpace=wrap;html=1;fillColor=#FFFFFF;strokeColor=#BB5933;fontColor=#143642;dashed=1;" parent="BcR8lCa2Gur--fkkyS4Y-192" vertex="1">
          <mxGeometry x="13.5" y="56" width="100" height="30" as="geometry" />
        </mxCell>
        <mxCell id="BcR8lCa2Gur--fkkyS4Y-162" value="数据分类" style="whiteSpace=wrap;html=1;fillColor=#FFFFFF;strokeColor=#BB5933;fontColor=#143642;dashed=1;" parent="BcR8lCa2Gur--fkkyS4Y-192" vertex="1">
          <mxGeometry x="13.5" y="99" width="100" height="30" as="geometry" />
        </mxCell>
        <mxCell id="BcR8lCa2Gur--fkkyS4Y-163" value="数据分级" style="whiteSpace=wrap;html=1;fillColor=#FFFFFF;strokeColor=#BB5933;fontColor=#143642;dashed=1;" parent="BcR8lCa2Gur--fkkyS4Y-192" vertex="1">
          <mxGeometry x="127" y="56" width="100" height="30" as="geometry" />
        </mxCell>
        <mxCell id="BcR8lCa2Gur--fkkyS4Y-170" value="血缘管理" style="whiteSpace=wrap;html=1;fillColor=#FFFFFF;strokeColor=#BB5933;fontColor=#143642;dashed=1;" parent="BcR8lCa2Gur--fkkyS4Y-192" vertex="1">
          <mxGeometry x="127" y="99" width="100" height="30" as="geometry" />
        </mxCell>
        <mxCell id="BcR8lCa2Gur--fkkyS4Y-193" value="" style="group" parent="1" vertex="1" connectable="0">
          <mxGeometry x="409" y="692.5" width="240" height="147.5" as="geometry" />
        </mxCell>
        <mxCell id="BcR8lCa2Gur--fkkyS4Y-177" value="数据权限控制" style="whiteSpace=wrap;html=1;align=center;verticalAlign=top;fontSize=16;fontStyle=1;fillColor=#FFE5DB;strokeColor=none;fontColor=#143642;" parent="BcR8lCa2Gur--fkkyS4Y-193" vertex="1">
          <mxGeometry width="240" height="147.5" as="geometry" />
        </mxCell>
        <mxCell id="BcR8lCa2Gur--fkkyS4Y-178" value="身份管理" style="whiteSpace=wrap;html=1;fillColor=#FFFFFF;strokeColor=#BB5933;fontColor=#143642;dashed=1;" parent="BcR8lCa2Gur--fkkyS4Y-193" vertex="1">
          <mxGeometry x="13.5" y="56" width="100" height="30" as="geometry" />
        </mxCell>
        <mxCell id="BcR8lCa2Gur--fkkyS4Y-179" value="数据分类" style="whiteSpace=wrap;html=1;fillColor=#FFFFFF;strokeColor=#BB5933;fontColor=#143642;dashed=1;" parent="BcR8lCa2Gur--fkkyS4Y-193" vertex="1">
          <mxGeometry x="13.5" y="99" width="100" height="30" as="geometry" />
        </mxCell>
        <mxCell id="BcR8lCa2Gur--fkkyS4Y-180" value="双因素认证" style="whiteSpace=wrap;html=1;fillColor=#FFFFFF;strokeColor=#BB5933;fontColor=#143642;dashed=1;" parent="BcR8lCa2Gur--fkkyS4Y-193" vertex="1">
          <mxGeometry x="127" y="56" width="100" height="30" as="geometry" />
        </mxCell>
        <mxCell id="BcR8lCa2Gur--fkkyS4Y-181" value="强制访问控制" style="whiteSpace=wrap;html=1;fillColor=#FFFFFF;strokeColor=#BB5933;fontColor=#143642;dashed=1;" parent="BcR8lCa2Gur--fkkyS4Y-193" vertex="1">
          <mxGeometry x="127" y="99" width="100" height="30" as="geometry" />
        </mxCell>
        <mxCell id="BcR8lCa2Gur--fkkyS4Y-194" value="" style="group" parent="1" vertex="1" connectable="0">
          <mxGeometry x="659" y="692.5" width="240" height="147.5" as="geometry" />
        </mxCell>
        <mxCell id="BcR8lCa2Gur--fkkyS4Y-182" value="数据监控审计" style="whiteSpace=wrap;html=1;align=center;verticalAlign=top;fontSize=16;fontStyle=1;fillColor=#FFE5DB;strokeColor=none;fontColor=#143642;" parent="BcR8lCa2Gur--fkkyS4Y-194" vertex="1">
          <mxGeometry width="240" height="147.5" as="geometry" />
        </mxCell>
        <mxCell id="BcR8lCa2Gur--fkkyS4Y-183" value="数据库审计" style="whiteSpace=wrap;html=1;fillColor=#FFFFFF;strokeColor=#BB5933;fontColor=#143642;dashed=1;" parent="BcR8lCa2Gur--fkkyS4Y-194" vertex="1">
          <mxGeometry x="13.5" y="56" width="100" height="30" as="geometry" />
        </mxCell>
        <mxCell id="BcR8lCa2Gur--fkkyS4Y-184" value="&#xa;&#xa;&lt;span style=&quot;color: rgb(20, 54, 66); font-family: helvetica; font-size: 12px; font-style: normal; font-weight: 400; letter-spacing: normal; text-align: center; text-indent: 0px; text-transform: none; word-spacing: 0px; background-color: rgb(248, 249, 250); display: inline; float: none;&quot;&gt;共享调用审计&lt;/span&gt;&#xa;&#xa;" style="whiteSpace=wrap;html=1;fillColor=#FFFFFF;strokeColor=#BB5933;fontColor=#143642;dashed=1;" parent="BcR8lCa2Gur--fkkyS4Y-194" vertex="1">
          <mxGeometry x="13.5" y="99" width="100" height="30" as="geometry" />
        </mxCell>
        <mxCell id="BcR8lCa2Gur--fkkyS4Y-185" value="人员操作审计" style="whiteSpace=wrap;html=1;fillColor=#FFFFFF;strokeColor=#BB5933;fontColor=#143642;dashed=1;" parent="BcR8lCa2Gur--fkkyS4Y-194" vertex="1">
          <mxGeometry x="127" y="56" width="100" height="30" as="geometry" />
        </mxCell>
        <mxCell id="BcR8lCa2Gur--fkkyS4Y-186" value="&#xa;&#xa;&lt;span style=&quot;color: rgb(20, 54, 66); font-family: helvetica; font-size: 12px; font-style: normal; font-weight: 400; letter-spacing: normal; text-align: center; text-indent: 0px; text-transform: none; word-spacing: 0px; background-color: rgb(248, 249, 250); display: inline; float: none;&quot;&gt;数据传输监控&lt;/span&gt;&#xa;&#xa;" style="whiteSpace=wrap;html=1;fillColor=#FFFFFF;strokeColor=#BB5933;fontColor=#143642;dashed=1;" parent="BcR8lCa2Gur--fkkyS4Y-194" vertex="1">
          <mxGeometry x="127" y="99" width="100" height="30" as="geometry" />
        </mxCell>
        <mxCell id="BcR8lCa2Gur--fkkyS4Y-195" value="" style="group" parent="1" vertex="1" connectable="0">
          <mxGeometry x="910.25" y="693" width="240" height="147.5" as="geometry" />
        </mxCell>
        <mxCell id="BcR8lCa2Gur--fkkyS4Y-187" value="数据资产管理" style="whiteSpace=wrap;html=1;align=center;verticalAlign=top;fontSize=16;fontStyle=1;fillColor=#FFE5DB;strokeColor=none;fontColor=#143642;" parent="BcR8lCa2Gur--fkkyS4Y-195" vertex="1">
          <mxGeometry width="240" height="147.5" as="geometry" />
        </mxCell>
        <mxCell id="BcR8lCa2Gur--fkkyS4Y-188" value="数据加密" style="whiteSpace=wrap;html=1;fillColor=#FFFFFF;strokeColor=#BB5933;fontColor=#143642;dashed=1;" parent="BcR8lCa2Gur--fkkyS4Y-195" vertex="1">
          <mxGeometry x="13.5" y="56" width="100" height="30" as="geometry" />
        </mxCell>
        <mxCell id="BcR8lCa2Gur--fkkyS4Y-189" value="数据水印" style="whiteSpace=wrap;html=1;fillColor=#FFFFFF;strokeColor=#BB5933;fontColor=#143642;dashed=1;" parent="BcR8lCa2Gur--fkkyS4Y-195" vertex="1">
          <mxGeometry x="13.5" y="99" width="100" height="30" as="geometry" />
        </mxCell>
        <mxCell id="BcR8lCa2Gur--fkkyS4Y-190" value="数据脱敏" style="whiteSpace=wrap;html=1;fillColor=#FFFFFF;strokeColor=#BB5933;fontColor=#143642;dashed=1;" parent="BcR8lCa2Gur--fkkyS4Y-195" vertex="1">
          <mxGeometry x="127" y="56" width="100" height="30" as="geometry" />
        </mxCell>
        <mxCell id="BcR8lCa2Gur--fkkyS4Y-191" value="数据防泄漏" style="whiteSpace=wrap;html=1;fillColor=#FFFFFF;strokeColor=#BB5933;fontColor=#143642;dashed=1;" parent="BcR8lCa2Gur--fkkyS4Y-195" vertex="1">
          <mxGeometry x="127" y="99" width="100" height="30" as="geometry" />
        </mxCell>
        <mxCell id="BcR8lCa2Gur--fkkyS4Y-233" value="硬销毁" style="whiteSpace=wrap;html=1;strokeColor=#d6b656;strokeWidth=2;fillColor=#fff2cc;" parent="1" vertex="1">
          <mxGeometry x="970.5" y="1210" width="150" height="30" as="geometry" />
        </mxCell>
        <mxCell id="BcR8lCa2Gur--fkkyS4Y-237" value="" style="group" parent="1" vertex="1" connectable="0">
          <mxGeometry x="81.5" y="1210" width="150" height="90" as="geometry" />
        </mxCell>
        <mxCell id="BcR8lCa2Gur--fkkyS4Y-214" value="明示原则" style="whiteSpace=wrap;html=1;strokeColor=#d6b656;strokeWidth=2;fillColor=#fff2cc;" parent="BcR8lCa2Gur--fkkyS4Y-237" vertex="1">
          <mxGeometry width="150" height="30" as="geometry" />
        </mxCell>
        <mxCell id="BcR8lCa2Gur--fkkyS4Y-215" value="授权原则" style="whiteSpace=wrap;html=1;strokeColor=#d6b656;strokeWidth=2;fillColor=#fff2cc;" parent="BcR8lCa2Gur--fkkyS4Y-237" vertex="1">
          <mxGeometry y="30" width="150" height="30" as="geometry" />
        </mxCell>
        <mxCell id="BcR8lCa2Gur--fkkyS4Y-216" value="爬虫风险" style="whiteSpace=wrap;html=1;strokeColor=#d6b656;strokeWidth=2;fillColor=#fff2cc;" parent="BcR8lCa2Gur--fkkyS4Y-237" vertex="1">
          <mxGeometry y="60" width="150" height="30" as="geometry" />
        </mxCell>
        <mxCell id="BcR8lCa2Gur--fkkyS4Y-235" value="爬虫风险" style="whiteSpace=wrap;html=1;strokeColor=#d6b656;strokeWidth=2;fillColor=#fff2cc;" parent="BcR8lCa2Gur--fkkyS4Y-237" vertex="1">
          <mxGeometry y="60" width="150" height="30" as="geometry" />
        </mxCell>
        <mxCell id="BcR8lCa2Gur--fkkyS4Y-238" value="" style="group" parent="1" vertex="1" connectable="0">
          <mxGeometry x="259.5" y="1210" width="150" height="60" as="geometry" />
        </mxCell>
        <mxCell id="BcR8lCa2Gur--fkkyS4Y-218" value="数据加密" style="whiteSpace=wrap;html=1;strokeColor=#d6b656;strokeWidth=2;fillColor=#fff2cc;" parent="BcR8lCa2Gur--fkkyS4Y-238" vertex="1">
          <mxGeometry width="150" height="30" as="geometry" />
        </mxCell>
        <mxCell id="BcR8lCa2Gur--fkkyS4Y-219" value="数据脱敏" style="whiteSpace=wrap;html=1;strokeColor=#d6b656;strokeWidth=2;fillColor=#fff2cc;" parent="BcR8lCa2Gur--fkkyS4Y-238" vertex="1">
          <mxGeometry y="30" width="150" height="30" as="geometry" />
        </mxCell>
        <mxCell id="BcR8lCa2Gur--fkkyS4Y-239" value="" style="group" parent="1" vertex="1" connectable="0">
          <mxGeometry x="437.5" y="1210" width="150" height="150" as="geometry" />
        </mxCell>
        <mxCell id="BcR8lCa2Gur--fkkyS4Y-220" value="访问控制" style="whiteSpace=wrap;html=1;strokeColor=#d6b656;strokeWidth=2;fillColor=#fff2cc;" parent="BcR8lCa2Gur--fkkyS4Y-239" vertex="1">
          <mxGeometry width="150" height="30" as="geometry" />
        </mxCell>
        <mxCell id="BcR8lCa2Gur--fkkyS4Y-221" value="数据加密" style="whiteSpace=wrap;html=1;strokeColor=#d6b656;strokeWidth=2;fillColor=#fff2cc;" parent="BcR8lCa2Gur--fkkyS4Y-239" vertex="1">
          <mxGeometry y="30" width="150" height="30" as="geometry" />
        </mxCell>
        <mxCell id="BcR8lCa2Gur--fkkyS4Y-223" value="安全审计" style="whiteSpace=wrap;html=1;strokeColor=#d6b656;strokeWidth=2;fillColor=#fff2cc;" parent="BcR8lCa2Gur--fkkyS4Y-239" vertex="1">
          <mxGeometry y="120" width="150" height="30" as="geometry" />
        </mxCell>
        <mxCell id="BcR8lCa2Gur--fkkyS4Y-224" value="分类分级" style="whiteSpace=wrap;html=1;strokeColor=#d6b656;strokeWidth=2;fillColor=#fff2cc;" parent="BcR8lCa2Gur--fkkyS4Y-239" vertex="1">
          <mxGeometry y="90" width="150" height="30" as="geometry" />
        </mxCell>
        <mxCell id="BcR8lCa2Gur--fkkyS4Y-236" value="数据脱敏" style="whiteSpace=wrap;html=1;strokeColor=#d6b656;strokeWidth=2;fillColor=#fff2cc;" parent="BcR8lCa2Gur--fkkyS4Y-239" vertex="1">
          <mxGeometry y="60" width="150" height="30" as="geometry" />
        </mxCell>
        <mxCell id="BcR8lCa2Gur--fkkyS4Y-240" value="" style="group" parent="1" vertex="1" connectable="0">
          <mxGeometry x="614.5" y="1210" width="150" height="120" as="geometry" />
        </mxCell>
        <mxCell id="BcR8lCa2Gur--fkkyS4Y-225" value="访问控制" style="whiteSpace=wrap;html=1;strokeColor=#d6b656;strokeWidth=2;fillColor=#fff2cc;" parent="BcR8lCa2Gur--fkkyS4Y-240" vertex="1">
          <mxGeometry width="150" height="30" as="geometry" />
        </mxCell>
        <mxCell id="BcR8lCa2Gur--fkkyS4Y-226" value="数据加密" style="whiteSpace=wrap;html=1;strokeColor=#d6b656;strokeWidth=2;fillColor=#fff2cc;" parent="BcR8lCa2Gur--fkkyS4Y-240" vertex="1">
          <mxGeometry y="30" width="150" height="30" as="geometry" />
        </mxCell>
        <mxCell id="BcR8lCa2Gur--fkkyS4Y-227" value="数据脱敏" style="whiteSpace=wrap;html=1;strokeColor=#d6b656;strokeWidth=2;fillColor=#fff2cc;" parent="BcR8lCa2Gur--fkkyS4Y-240" vertex="1">
          <mxGeometry y="60" width="150" height="30" as="geometry" />
        </mxCell>
        <mxCell id="BcR8lCa2Gur--fkkyS4Y-231" value="安全审计" style="whiteSpace=wrap;html=1;strokeColor=#d6b656;strokeWidth=2;fillColor=#fff2cc;" parent="BcR8lCa2Gur--fkkyS4Y-240" vertex="1">
          <mxGeometry y="90" width="150" height="30" as="geometry" />
        </mxCell>
        <mxCell id="BcR8lCa2Gur--fkkyS4Y-241" value="" style="group" parent="1" vertex="1" connectable="0">
          <mxGeometry x="792.5" y="1210" width="150" height="120" as="geometry" />
        </mxCell>
        <mxCell id="BcR8lCa2Gur--fkkyS4Y-228" value="访问控制" style="whiteSpace=wrap;html=1;strokeColor=#d6b656;strokeWidth=2;fillColor=#fff2cc;" parent="BcR8lCa2Gur--fkkyS4Y-241" vertex="1">
          <mxGeometry width="150" height="30" as="geometry" />
        </mxCell>
        <mxCell id="BcR8lCa2Gur--fkkyS4Y-229" value="数据加密" style="whiteSpace=wrap;html=1;strokeColor=#d6b656;strokeWidth=2;fillColor=#fff2cc;" parent="BcR8lCa2Gur--fkkyS4Y-241" vertex="1">
          <mxGeometry y="30" width="150" height="30" as="geometry" />
        </mxCell>
        <mxCell id="BcR8lCa2Gur--fkkyS4Y-230" value="数据脱敏" style="whiteSpace=wrap;html=1;strokeColor=#d6b656;strokeWidth=2;fillColor=#fff2cc;" parent="BcR8lCa2Gur--fkkyS4Y-241" vertex="1">
          <mxGeometry y="60" width="150" height="30" as="geometry" />
        </mxCell>
        <mxCell id="BcR8lCa2Gur--fkkyS4Y-232" value="安全审计" style="whiteSpace=wrap;html=1;strokeColor=#d6b656;strokeWidth=2;fillColor=#fff2cc;" parent="BcR8lCa2Gur--fkkyS4Y-241" vertex="1">
          <mxGeometry y="90" width="150" height="30" as="geometry" />
        </mxCell>
        <mxCell id="BcR8lCa2Gur--fkkyS4Y-242" value="" style="group" parent="1" vertex="1" connectable="0">
          <mxGeometry x="970.5" y="1021" width="150" height="60" as="geometry" />
        </mxCell>
        <mxCell id="BcR8lCa2Gur--fkkyS4Y-202" value="数据合规" style="whiteSpace=wrap;html=1;strokeColor=#99CCFF;strokeWidth=2;" parent="BcR8lCa2Gur--fkkyS4Y-242" vertex="1">
          <mxGeometry width="150" height="30" as="geometry" />
        </mxCell>
        <mxCell id="BcR8lCa2Gur--fkkyS4Y-212" value="数据泄露" style="whiteSpace=wrap;html=1;strokeColor=#99CCFF;strokeWidth=2;" parent="BcR8lCa2Gur--fkkyS4Y-242" vertex="1">
          <mxGeometry y="30" width="150" height="30" as="geometry" />
        </mxCell>
        <mxCell id="BcR8lCa2Gur--fkkyS4Y-243" value="" style="group" parent="1" vertex="1" connectable="0">
          <mxGeometry x="792.5" y="1021" width="150" height="60" as="geometry" />
        </mxCell>
        <mxCell id="BcR8lCa2Gur--fkkyS4Y-201" value="数据合规" style="whiteSpace=wrap;html=1;strokeColor=#99CCFF;strokeWidth=2;" parent="BcR8lCa2Gur--fkkyS4Y-243" vertex="1">
          <mxGeometry width="150" height="30" as="geometry" />
        </mxCell>
        <mxCell id="BcR8lCa2Gur--fkkyS4Y-234" value="数据泄露" style="whiteSpace=wrap;html=1;strokeColor=#99CCFF;strokeWidth=2;" parent="BcR8lCa2Gur--fkkyS4Y-243" vertex="1">
          <mxGeometry y="30" width="150" height="30" as="geometry" />
        </mxCell>
        <mxCell id="BcR8lCa2Gur--fkkyS4Y-244" value="" style="group" parent="1" vertex="1" connectable="0">
          <mxGeometry x="614.5" y="1021" width="150" height="90" as="geometry" />
        </mxCell>
        <mxCell id="BcR8lCa2Gur--fkkyS4Y-200" value="数据合规" style="whiteSpace=wrap;html=1;strokeColor=#99CCFF;strokeWidth=2;" parent="BcR8lCa2Gur--fkkyS4Y-244" vertex="1">
          <mxGeometry width="150" height="30" as="geometry" />
        </mxCell>
        <mxCell id="BcR8lCa2Gur--fkkyS4Y-208" value="数据泄露" style="whiteSpace=wrap;html=1;strokeColor=#99CCFF;strokeWidth=2;" parent="BcR8lCa2Gur--fkkyS4Y-244" vertex="1">
          <mxGeometry y="30" width="150" height="30" as="geometry" />
        </mxCell>
        <mxCell id="BcR8lCa2Gur--fkkyS4Y-210" value="数据未授权访问" style="whiteSpace=wrap;html=1;strokeColor=#99CCFF;strokeWidth=2;" parent="BcR8lCa2Gur--fkkyS4Y-244" vertex="1">
          <mxGeometry y="60" width="150" height="30" as="geometry" />
        </mxCell>
        <mxCell id="BcR8lCa2Gur--fkkyS4Y-245" value="" style="group" parent="1" vertex="1" connectable="0">
          <mxGeometry x="437.5" y="1021" width="150" height="150" as="geometry" />
        </mxCell>
        <mxCell id="BcR8lCa2Gur--fkkyS4Y-199" value="数据合规" style="whiteSpace=wrap;html=1;strokeColor=#99CCFF;strokeWidth=2;" parent="BcR8lCa2Gur--fkkyS4Y-245" vertex="1">
          <mxGeometry width="150" height="30" as="geometry" />
        </mxCell>
        <mxCell id="BcR8lCa2Gur--fkkyS4Y-204" value="数据泄露" style="whiteSpace=wrap;html=1;strokeColor=#99CCFF;strokeWidth=2;" parent="BcR8lCa2Gur--fkkyS4Y-245" vertex="1">
          <mxGeometry y="30" width="150" height="30" as="geometry" />
        </mxCell>
        <mxCell id="BcR8lCa2Gur--fkkyS4Y-205" value="数据未授权访问" style="whiteSpace=wrap;html=1;strokeColor=#99CCFF;strokeWidth=2;" parent="BcR8lCa2Gur--fkkyS4Y-245" vertex="1">
          <mxGeometry y="60" width="150" height="30" as="geometry" />
        </mxCell>
        <mxCell id="BcR8lCa2Gur--fkkyS4Y-206" value="数据篡改" style="whiteSpace=wrap;html=1;strokeColor=#99CCFF;strokeWidth=2;" parent="BcR8lCa2Gur--fkkyS4Y-245" vertex="1">
          <mxGeometry y="90" width="150" height="30" as="geometry" />
        </mxCell>
        <mxCell id="BcR8lCa2Gur--fkkyS4Y-207" value="数据不可用" style="whiteSpace=wrap;html=1;strokeColor=#99CCFF;strokeWidth=2;" parent="BcR8lCa2Gur--fkkyS4Y-245" vertex="1">
          <mxGeometry y="120" width="150" height="30" as="geometry" />
        </mxCell>
        <mxCell id="BcR8lCa2Gur--fkkyS4Y-249" value="" style="group" parent="1" vertex="1" connectable="0">
          <mxGeometry x="259.5" y="1021" width="150" height="60" as="geometry" />
        </mxCell>
        <mxCell id="BcR8lCa2Gur--fkkyS4Y-198" value="数据合规" style="whiteSpace=wrap;html=1;strokeColor=#99CCFF;strokeWidth=2;" parent="BcR8lCa2Gur--fkkyS4Y-249" vertex="1">
          <mxGeometry width="150" height="30" as="geometry" />
        </mxCell>
        <mxCell id="BcR8lCa2Gur--fkkyS4Y-203" value="数据泄露" style="whiteSpace=wrap;html=1;strokeColor=#99CCFF;strokeWidth=2;" parent="BcR8lCa2Gur--fkkyS4Y-249" vertex="1">
          <mxGeometry y="30" width="150" height="30" as="geometry" />
        </mxCell>
      </root>
    </mxGraphModel>
  </diagram>
</mxfile>
